<?xml version="1.0" encoding="UTF-8" standalone="no"?>
<!-- Generator: Adobe Illustrator 21.1.0, SVG Export Plug-In . SVG Version: 6.00 Build 0)  -->

<svg
   xmlns:dc="http://purl.org/dc/elements/1.1/"
   xmlns:cc="http://creativecommons.org/ns#"
   xmlns:rdf="http://www.w3.org/1999/02/22-rdf-syntax-ns#"
   xmlns:svg="http://www.w3.org/2000/svg"
   xmlns="http://www.w3.org/2000/svg"
   xmlns:sodipodi="http://sodipodi.sourceforge.net/DTD/sodipodi-0.dtd"
   xmlns:inkscape="http://www.inkscape.org/namespaces/inkscape"
   version="1.1"
   id="Layer_1"
   x="0px"
   y="0px"
   viewBox="0 0 512 512"
   style="enable-background:new 0 0 512 512;"
   xml:space="preserve"
   inkscape:version="0.91 r13725"
   sodipodi:docname="candle_on.svg"><metadata
     id="metadata21"><rdf:RDF><cc:Work
         rdf:about=""><dc:format>image/svg+xml</dc:format><dc:type
           rdf:resource="http://purl.org/dc/dcmitype/StillImage" /></cc:Work></rdf:RDF></metadata><defs
     id="defs19" /><sodipodi:namedview
     pagecolor="#ffffff"
     bordercolor="#666666"
     borderopacity="1"
     objecttolerance="10"
     gridtolerance="10"
     guidetolerance="10"
     inkscape:pageopacity="0"
     inkscape:pageshadow="2"
     inkscape:window-width="1440"
     inkscape:window-height="837"
     id="namedview17"
     showgrid="false"
     inkscape:zoom="0.921875"
     inkscape:cx="337.67575"
     inkscape:cy="269.67828"
     inkscape:window-x="-8"
     inkscape:window-y="-8"
     inkscape:window-maximized="1"
     inkscape:current-layer="Layer_1" /><style
     type="text/css"
     id="style3">
	.st0{fill:#FFCE00;}
	.st1{fill:#008FD5;}
</style><rect
     x="203.7"
     y="195.9"
     class="st0"
     width="104.6"
     height="305.9"
     id="rect5"
     style="fill:#008df5;fill-opacity:1" /><path
     class="st1"
     d="M301.8,111.6c0,25.3-20.5,45.8-45.8,45.8s-45.8-20.5-45.8-45.8S256,10.2,256,10.2S301.8,86.3,301.8,111.6z"
     id="path7"
     style="fill:#ffce00;fill-opacity:1" /><g
     id="g9"><path
       d="M308.3,185.7h-42.1v-19.1c26-4.8,45.8-27.6,45.8-55c0-26.7-39.3-93.5-47.2-106.6C262.9,1.9,259.6,0,256,0   c-3.6,0-6.9,1.9-8.7,4.9c-7.9,13.1-47.2,79.9-47.2,106.6c0,27.4,19.8,50.2,45.8,55v19.1h-42.1c-5.6,0-10.2,4.6-10.2,10.2v305.9   c0,5.6,4.6,10.2,10.2,10.2h104.5c5.6,0,10.2-4.6,10.2-10.2V195.9C318.5,190.2,313.9,185.7,308.3,185.7z M220.4,111.6   c0-13.7,19.2-52.3,35.6-81.1c16.3,28.8,35.6,67.3,35.6,81.1c0,16.1-10.7,29.7-25.4,34.1v-37.3c0-5.6-4.6-10.2-10.2-10.2   s-10.2,4.6-10.2,10.2v37.3C231.2,141.2,220.4,127.6,220.4,111.6z M298.1,491.6h-84.1V206.1h84.1V491.6z"
       id="path11" /><path
       d="M277.1,479.3c5.6,0,10.2-4.6,10.2-10.2v-53.8c0-5.6-4.6-10.2-10.2-10.2s-10.2,4.6-10.2,10.2v53.8   C266.9,474.7,271.5,479.3,277.1,479.3z"
       id="path13"
       style="fill:#ffffff;fill-opacity:1" /><path
       d="M277.1,392.7c5.6,0,10.2-4.6,10.2-10.2v-7.4c0-5.6-4.6-10.2-10.2-10.2s-10.2,4.6-10.2,10.2v7.4   C266.9,388.1,271.5,392.7,277.1,392.7z"
       id="path15"
       style="fill:#ffffff;fill-opacity:1" /></g></svg>